<mxfile host="app.diagrams.net" modified="2021-05-09T15:59:54.368Z" agent="5.0 (X11; Linux x86_64) AppleWebKit/537.36 (KHTML, like Gecko) Chrome/90.0.4430.93 Safari/537.36" etag="Us9mQ6Ntd8wTi2pMCOQb" version="14.6.1" type="github">
  <diagram id="yLyT3e67lW2fSL8DJx3e" name="Page-1">
    <mxGraphModel dx="1422" dy="1206" grid="1" gridSize="10" guides="1" tooltips="1" connect="1" arrows="1" fold="1" page="0" pageScale="1" pageWidth="900" pageHeight="1600" math="0" shadow="0">
      <root>
        <mxCell id="0" />
        <mxCell id="1" parent="0" />
        <mxCell id="x0fAhQJQgJVIecDESbo6-34" value="" style="rounded=0;whiteSpace=wrap;html=1;align=center;" vertex="1" parent="1">
          <mxGeometry y="-20" width="720" height="420" as="geometry" />
        </mxCell>
        <mxCell id="x0fAhQJQgJVIecDESbo6-5" value="&amp;nbsp;CPU" style="rounded=0;whiteSpace=wrap;html=1;verticalAlign=top;align=left;" vertex="1" parent="1">
          <mxGeometry x="40" y="40" width="280" height="120" as="geometry" />
        </mxCell>
        <mxCell id="x0fAhQJQgJVIecDESbo6-6" value="&amp;nbsp;CPU" style="rounded=0;whiteSpace=wrap;html=1;verticalAlign=top;align=left;" vertex="1" parent="1">
          <mxGeometry x="40" y="240" width="280" height="120" as="geometry" />
        </mxCell>
        <mxCell id="x0fAhQJQgJVIecDESbo6-10" style="edgeStyle=orthogonalEdgeStyle;rounded=0;orthogonalLoop=1;jettySize=auto;html=1;startArrow=classic;startFill=1;" edge="1" parent="1" source="x0fAhQJQgJVIecDESbo6-2" target="x0fAhQJQgJVIecDESbo6-7">
          <mxGeometry relative="1" as="geometry" />
        </mxCell>
        <mxCell id="x0fAhQJQgJVIecDESbo6-11" style="rounded=0;orthogonalLoop=1;jettySize=auto;html=1;startArrow=classic;startFill=1;" edge="1" parent="1" source="x0fAhQJQgJVIecDESbo6-2" target="x0fAhQJQgJVIecDESbo6-8">
          <mxGeometry relative="1" as="geometry" />
        </mxCell>
        <mxCell id="x0fAhQJQgJVIecDESbo6-2" value="NODE" style="ellipse;whiteSpace=wrap;html=1;fillColor=#dae8fc;strokeColor=#6c8ebf;" vertex="1" parent="1">
          <mxGeometry x="70" y="70" width="90" height="60" as="geometry" />
        </mxCell>
        <mxCell id="x0fAhQJQgJVIecDESbo6-12" style="edgeStyle=none;rounded=0;orthogonalLoop=1;jettySize=auto;html=1;startArrow=classic;startFill=1;" edge="1" parent="1" source="x0fAhQJQgJVIecDESbo6-3" target="x0fAhQJQgJVIecDESbo6-2">
          <mxGeometry relative="1" as="geometry" />
        </mxCell>
        <mxCell id="x0fAhQJQgJVIecDESbo6-13" style="edgeStyle=none;rounded=0;orthogonalLoop=1;jettySize=auto;html=1;startArrow=classic;startFill=1;" edge="1" parent="1" source="x0fAhQJQgJVIecDESbo6-3" target="x0fAhQJQgJVIecDESbo6-8">
          <mxGeometry relative="1" as="geometry" />
        </mxCell>
        <mxCell id="x0fAhQJQgJVIecDESbo6-3" value="NODE" style="ellipse;whiteSpace=wrap;html=1;fillColor=#dae8fc;strokeColor=#6c8ebf;" vertex="1" parent="1">
          <mxGeometry x="200" y="70" width="90" height="60" as="geometry" />
        </mxCell>
        <mxCell id="x0fAhQJQgJVIecDESbo6-7" value="NODE" style="ellipse;whiteSpace=wrap;html=1;fillColor=#dae8fc;strokeColor=#6c8ebf;" vertex="1" parent="1">
          <mxGeometry x="70" y="270" width="90" height="60" as="geometry" />
        </mxCell>
        <mxCell id="x0fAhQJQgJVIecDESbo6-8" value="NODE" style="ellipse;whiteSpace=wrap;html=1;fillColor=#dae8fc;strokeColor=#6c8ebf;" vertex="1" parent="1">
          <mxGeometry x="200" y="270" width="90" height="60" as="geometry" />
        </mxCell>
        <mxCell id="x0fAhQJQgJVIecDESbo6-14" value="&amp;nbsp;CPU" style="rounded=0;whiteSpace=wrap;html=1;verticalAlign=top;align=left;" vertex="1" parent="1">
          <mxGeometry x="400" y="40" width="280" height="120" as="geometry" />
        </mxCell>
        <mxCell id="x0fAhQJQgJVIecDESbo6-25" style="edgeStyle=none;rounded=0;orthogonalLoop=1;jettySize=auto;html=1;startArrow=classic;startFill=1;" edge="1" parent="1" source="x0fAhQJQgJVIecDESbo6-18" target="x0fAhQJQgJVIecDESbo6-22">
          <mxGeometry relative="1" as="geometry" />
        </mxCell>
        <mxCell id="x0fAhQJQgJVIecDESbo6-18" value="NODE" style="ellipse;whiteSpace=wrap;html=1;fillColor=#dae8fc;strokeColor=#6c8ebf;" vertex="1" parent="1">
          <mxGeometry x="430" y="70" width="90" height="60" as="geometry" />
        </mxCell>
        <mxCell id="x0fAhQJQgJVIecDESbo6-19" style="edgeStyle=none;rounded=0;orthogonalLoop=1;jettySize=auto;html=1;startArrow=classic;startFill=1;" edge="1" parent="1" source="x0fAhQJQgJVIecDESbo6-21" target="x0fAhQJQgJVIecDESbo6-18">
          <mxGeometry relative="1" as="geometry" />
        </mxCell>
        <mxCell id="x0fAhQJQgJVIecDESbo6-26" style="edgeStyle=none;rounded=0;orthogonalLoop=1;jettySize=auto;html=1;startArrow=classic;startFill=1;" edge="1" parent="1" source="x0fAhQJQgJVIecDESbo6-21" target="x0fAhQJQgJVIecDESbo6-22">
          <mxGeometry relative="1" as="geometry" />
        </mxCell>
        <mxCell id="x0fAhQJQgJVIecDESbo6-21" value="NODE" style="ellipse;whiteSpace=wrap;html=1;fillColor=#dae8fc;strokeColor=#6c8ebf;" vertex="1" parent="1">
          <mxGeometry x="560" y="70" width="90" height="60" as="geometry" />
        </mxCell>
        <mxCell id="x0fAhQJQgJVIecDESbo6-27" style="edgeStyle=none;rounded=0;orthogonalLoop=1;jettySize=auto;html=1;startArrow=classic;startFill=1;" edge="1" parent="1" source="x0fAhQJQgJVIecDESbo6-22">
          <mxGeometry relative="1" as="geometry">
            <mxPoint x="540" y="280" as="targetPoint" />
          </mxGeometry>
        </mxCell>
        <mxCell id="x0fAhQJQgJVIecDESbo6-22" value="rosbridge" style="ellipse;whiteSpace=wrap;html=1;fillColor=#ffe6cc;strokeColor=#d79b00;" vertex="1" parent="1">
          <mxGeometry x="495" y="190" width="90" height="60" as="geometry" />
        </mxCell>
        <mxCell id="x0fAhQJQgJVIecDESbo6-29" value="Micro-controller" style="rounded=1;whiteSpace=wrap;html=1;align=center;" vertex="1" parent="1">
          <mxGeometry x="480" y="280" width="120" height="60" as="geometry" />
        </mxCell>
        <mxCell id="x0fAhQJQgJVIecDESbo6-30" value="&lt;span style=&quot;font-size: 16px&quot;&gt;&quot;Unified&quot;&lt;/span&gt;" style="text;html=1;strokeColor=none;fillColor=none;align=center;verticalAlign=middle;whiteSpace=wrap;rounded=0;" vertex="1" parent="1">
          <mxGeometry x="160" width="40" height="20" as="geometry" />
        </mxCell>
        <mxCell id="x0fAhQJQgJVIecDESbo6-31" value="&lt;span style=&quot;font-size: 16px&quot;&gt;Bridged&lt;/span&gt;" style="text;html=1;strokeColor=none;fillColor=none;align=center;verticalAlign=middle;whiteSpace=wrap;rounded=0;" vertex="1" parent="1">
          <mxGeometry x="520" width="40" height="20" as="geometry" />
        </mxCell>
      </root>
    </mxGraphModel>
  </diagram>
</mxfile>
